<svg width="22" height="22" viewBox="0 0 22 22" fill="none" xmlns="http://www.w3.org/2000/svg">
<path d="M18.23 21.1143H15.778C13.736 21.1193 5.39903 21.1393 3.31003 21.1143C0.976028 21.0873 0.756042 18.5602 0.756042 18.5602V16.1432H14.956C14.8807 17.1593 14.9822 18.1808 15.256 19.1622C15.5606 19.8349 16.057 20.4026 16.683 20.7942C17.2369 21.0024 17.8234 21.1105 18.415 21.1133C20.859 21.1403 21.134 18.2023 21.134 18.2023V0.873169L18.159 3.39917L15.267 1.09924L12.6671 3.39917L9.87305 1.09924L7.17303 3.39917L4.37903 1.09924V15.3232" stroke="#595959" stroke-width="1.5" stroke-linecap="round" stroke-linejoin="round"/>
<path d="M8.23404 8.17822H13.771" stroke="#595959" stroke-width="1.5" stroke-linecap="round"/>
<path d="M8.23404 12.1782H17.3091" stroke="#595959" stroke-width="1.5" stroke-linecap="round"/>
</svg>
