<svg width="27" height="22" viewBox="0 0 27 22" fill="none" xmlns="http://www.w3.org/2000/svg">
<path d="M15.152 0.000223084C12.2157 -0.0184027 9.39232 1.12998 7.30268 3.19281C5.21303 5.25563 4.02828 8.06398 4.00898 11.0002H0.294983L5.11098 15.7542L5.19798 15.9252L10.198 10.9992H6.48498C6.46258 8.99426 7.13716 7.04374 8.39345 5.48101C9.64973 3.91828 11.4097 2.84034 13.3727 2.43141C15.3356 2.02247 17.3797 2.30793 19.1555 3.239C20.9313 4.17006 22.3286 5.68894 23.1087 7.53606C23.8888 9.38318 24.0032 11.4439 23.4324 13.366C22.8615 15.2881 21.6409 16.9523 19.979 18.0742C18.3172 19.1961 16.3173 19.7061 14.3212 19.5169C12.325 19.3278 10.4565 18.4513 9.03498 17.0372L7.27798 18.7732C8.83455 20.3122 10.8091 21.3598 12.9562 21.7857C15.1032 22.2117 17.3281 21.9973 19.3543 21.1691C21.3805 20.3409 23.1186 18.9355 24.3526 17.1276C25.5866 15.3196 26.2621 13.1889 26.295 11.0002C26.2757 8.06398 25.0909 5.25563 23.0013 3.19281C20.9116 1.12998 18.0882 -0.0184027 15.152 0.000223084ZM13.914 6.11122V12.2222L19.214 15.3222L20.105 13.8432L15.772 11.3012V6.11122H13.914Z" fill="#595959"/>
</svg>
