<svg width="23" height="19" viewBox="0 0 23 19" fill="none" xmlns="http://www.w3.org/2000/svg">
<path d="M11.197 2.58626L4.77901 7.64126L2.36601 9.54826L11.197 2.58626ZM11.197 2.58626L20.028 9.54826L11.197 2.58626ZM11.589 1.24926C11.4758 1.15769 11.3346 1.10773 11.189 1.10773C11.0434 1.10773 10.9022 1.15769 10.789 1.24926L1.57001 8.52326L2.37001 9.54826L3.50001 8.64826V16.6863C3.49882 16.856 3.53111 17.0242 3.59502 17.1815C3.65893 17.3387 3.75321 17.4817 3.87247 17.6025C3.99172 17.7232 4.13362 17.8193 4.29003 17.8851C4.44644 17.951 4.6143 17.9853 4.78401 17.9863H17.615C17.7847 17.9853 17.9526 17.951 18.109 17.8851C18.2654 17.8193 18.4073 17.7232 18.5265 17.6025C18.6458 17.4817 18.7401 17.3387 18.804 17.1815C18.8679 17.0242 18.9002 16.856 18.899 16.6863V8.66026L20.029 9.54926L20.829 8.53026L11.589 1.24926Z" stroke="#007AFD" stroke-width="2"/>
</svg>
