<svg width="23" height="23" viewBox="0 0 23 23" fill="none" xmlns="http://www.w3.org/2000/svg">
<path d="M19.204 21.5613H16.752C14.71 21.5663 6.37303 21.5863 4.28403 21.5613C1.95003 21.5343 1.73004 19.0072 1.73004 19.0072V16.5902H15.93C15.8547 17.6063 15.9562 18.6278 16.23 19.6093C16.5346 20.2819 17.031 20.8496 17.657 21.2412C18.2109 21.4494 18.7974 21.5575 19.389 21.5603C21.833 21.5873 22.108 18.6493 22.108 18.6493V1.32019L19.133 3.84619L16.241 1.54626L13.6411 3.84619L10.847 1.54626L8.14703 3.84619L5.35303 1.54626V15.7703" stroke="#595959" stroke-width="1.5" stroke-linecap="round" stroke-linejoin="round"/>
<path d="M9.20804 8.62524H14.745" stroke="#595959" stroke-width="1.5" stroke-linecap="round"/>
<path d="M9.20804 12.6252H18.2831" stroke="#595959" stroke-width="1.5" stroke-linecap="round"/>
</svg>
