<svg width="19" height="19" viewBox="0 0 19 19" fill="none" xmlns="http://www.w3.org/2000/svg">
<path d="M9.94501 2.63824C10.4122 2.63824 10.8688 2.77677 11.2573 3.03631C11.6457 3.29585 11.9484 3.66475 12.1272 4.09635C12.306 4.52795 12.3528 5.00286 12.2616 5.46105C12.1705 5.91923 11.9455 6.3401 11.6152 6.67043C11.2849 7.00076 10.864 7.22572 10.4058 7.31686C9.94763 7.408 9.47271 7.36122 9.04111 7.18245C8.60951 7.00367 8.24062 6.70093 7.98108 6.3125C7.72154 5.92407 7.58301 5.4674 7.58301 5.00024C7.58301 4.3738 7.83186 3.77302 8.27482 3.33006C8.71778 2.8871 9.31857 2.63824 9.94501 2.63824ZM9.94501 12.7632C13.286 12.7632 16.807 14.4062 16.807 15.1262V16.3632H3.08301V15.1252C3.08301 14.4052 6.60401 12.7622 9.94601 12.7622L9.94501 12.7632ZM9.94501 0.500244C9.05499 0.500244 8.18496 0.764164 7.44494 1.25863C6.70492 1.7531 6.12814 2.4559 5.78755 3.27817C5.44695 4.10044 5.35784 5.00524 5.53147 5.87815C5.70511 6.75107 6.13369 7.55289 6.76303 8.18222C7.39236 8.81156 8.19419 9.24014 9.0671 9.41378C9.94001 9.58741 10.8448 9.4983 11.6671 9.1577C12.4893 8.81711 13.1922 8.24033 13.6866 7.50031C14.1811 6.76029 14.445 5.89026 14.445 5.00024C14.445 3.80677 13.9709 2.66218 13.127 1.81826C12.2831 0.97435 11.1385 0.500244 9.94501 0.500244ZM9.94501 10.6252C6.94501 10.6252 0.945007 12.1322 0.945007 15.1252V18.5002H18.945V15.1252C18.945 12.1322 12.945 10.6252 9.94501 10.6252Z" fill="#595959"/>
</svg>
