<svg width="32" height="32" viewBox="0 0 32 32" fill="none" xmlns="http://www.w3.org/2000/svg">
<path fill-rule="evenodd" clip-rule="evenodd" d="M19.9942 4.88725L18.2032 3.04925L19.5942 1.69425L20.8053 2.93425L22.5372 2.91225C23.2873 2.9034 24.0316 3.04461 24.7263 3.32757C25.421 3.61054 26.0521 4.02955 26.5825 4.55997C27.1129 5.09038 27.532 5.7215 27.8149 6.4162C28.0979 7.11091 28.2391 7.85518 28.2302 8.60525L28.2112 10.3372L29.4492 11.5482C29.9856 12.0723 30.4117 12.6983 30.7027 13.3895C30.9936 14.0806 31.1435 14.8229 31.1435 15.5727C31.1435 16.3226 30.9936 17.0649 30.7027 17.756C30.4117 18.4472 29.9856 19.0732 29.4492 19.5972L28.2092 20.8082L28.2312 22.5402C28.2401 23.2903 28.0989 24.0346 27.8159 24.7293C27.533 25.424 27.1139 26.0551 26.5835 26.5855C26.0531 27.1159 25.422 27.535 24.7273 27.8179C24.0326 28.1009 23.2883 28.2421 22.5382 28.2332L20.8062 28.2142L19.5942 29.4492C19.0702 29.9856 18.4442 30.4117 17.753 30.7027C17.0619 30.9936 16.3196 31.1435 15.5697 31.1435C14.8199 31.1435 14.0776 30.9936 13.3865 30.7027C12.6953 30.4117 12.0693 29.9856 11.5452 29.4492L10.3342 28.2092L8.60225 28.2312C7.85218 28.2401 7.10791 28.0989 6.41321 27.8159C5.7185 27.533 5.08738 27.1139 4.55697 26.5835C4.02655 26.0531 3.60754 25.422 3.32457 24.7273C3.04161 24.0326 2.9004 23.2883 2.90925 22.5382L2.92825 20.8062L1.69425 19.5942C1.15793 19.0702 0.731781 18.4442 0.44083 17.753C0.149879 17.0619 0 16.3196 0 15.5697C0 14.8199 0.149879 14.0776 0.44083 13.3865C0.731781 12.6953 1.15793 12.0693 1.69425 11.5452L2.93425 10.3342L2.91025 8.60225C2.9014 7.85218 3.04261 7.10791 3.32557 6.41321C3.60854 5.7185 4.02755 5.08738 4.55797 4.55697C5.08838 4.02655 5.7195 3.60754 6.41421 3.32457C7.10891 3.04161 7.85318 2.9004 8.60325 2.90925L10.3352 2.92825L11.5462 1.69425C12.0703 1.15793 12.6963 0.731781 13.3875 0.44083C14.0786 0.149879 14.8209 0 15.5707 0C16.3206 0 17.0629 0.149879 17.754 0.44083C18.4452 0.731781 19.0712 1.15793 19.5952 1.69425L18.2032 3.04925C17.8606 2.69822 17.4511 2.41928 16.999 2.22883C16.5469 2.03838 16.0613 1.94027 15.5707 1.94027C15.0802 1.94027 14.5946 2.03838 14.1425 2.22883C13.6904 2.41928 13.2809 2.69822 12.9382 3.04925L11.1472 4.88725L8.57725 4.85625C8.08695 4.85062 7.60048 4.94305 7.14642 5.12812C6.69235 5.31318 6.27987 5.58715 5.9332 5.93391C5.58653 6.28067 5.31268 6.69323 5.12773 7.14734C4.94279 7.60145 4.85049 8.08795 4.85625 8.57825L4.88725 11.1452L3.04925 12.9382C2.69822 13.2809 2.41928 13.6904 2.22883 14.1425C2.03838 14.5946 1.94027 15.0802 1.94027 15.5707C1.94027 16.0613 2.03838 16.5469 2.22883 16.999C2.41928 17.4511 2.69822 17.8606 3.04925 18.2032L4.88725 19.9942L4.85625 22.5642C4.85062 23.0546 4.94308 23.5412 5.12821 23.9953C5.31334 24.4494 5.58739 24.862 5.93426 25.2087C6.28113 25.5553 6.69381 25.8292 7.14804 26.0141C7.60226 26.1989 8.08887 26.2911 8.57925 26.2852L11.1462 26.2542L12.9382 28.0942C13.2809 28.4453 13.6904 28.7242 14.1425 28.9147C14.5946 29.1051 15.0802 29.2032 15.5707 29.2032C16.0613 29.2032 16.5469 29.1051 16.999 28.9147C17.4511 28.7242 17.8606 28.4453 18.2032 28.0942L19.9942 26.2542L22.5642 26.2852C23.0546 26.2909 23.5412 26.1984 23.9953 26.0133C24.4494 25.8282 24.862 25.5541 25.2087 25.2072C25.5553 24.8604 25.8292 24.4477 26.0141 23.9935C26.1989 23.5392 26.2911 23.0526 26.2852 22.5623L26.2542 19.9942L28.0942 18.2032C28.4453 17.8606 28.7242 17.4511 28.9147 16.999C29.1051 16.5469 29.2032 16.0613 29.2032 15.5707C29.2032 15.0802 29.1051 14.5946 28.9147 14.1425C28.7242 13.6904 28.4453 13.2809 28.0942 12.9382L26.2542 11.1472L26.2852 8.57725C26.2909 8.08687 26.1984 7.60031 26.0133 7.14618C25.8282 6.69205 25.5541 6.27952 25.2072 5.93284C24.8604 5.58616 24.4477 5.31232 23.9935 5.12744C23.5392 4.94256 23.0526 4.85035 22.5623 4.85625L19.9942 4.88725Z" fill="#5EA9CE"/>
<path fill-rule="evenodd" clip-rule="evenodd" d="M15.5713 10.7032C15.8296 10.7032 16.0774 10.8059 16.26 10.9885C16.4427 11.1712 16.5453 11.4189 16.5453 11.6772V15.5712C16.5453 15.8296 16.4427 16.0773 16.26 16.26C16.0774 16.4426 15.8296 16.5452 15.5713 16.5452H11.6773C11.4245 16.5371 11.1848 16.431 11.0088 16.2493C10.8329 16.0677 10.7345 15.8247 10.7345 15.5717C10.7345 15.3188 10.8329 15.0758 11.0088 14.8941C11.1848 14.7125 11.4245 14.6064 11.6773 14.5982H14.5983V11.6772C14.5983 11.4191 14.7008 11.1715 14.8832 10.9889C15.0657 10.8062 15.3131 10.7035 15.5713 10.7032Z" fill="#5EA9CE"/>
<path fill-rule="evenodd" clip-rule="evenodd" d="M14.5973 15.5713C14.5973 15.3129 14.6999 15.0652 14.8826 14.8825C15.0652 14.6999 15.313 14.5973 15.5713 14.5973H19.4653C19.7181 14.6054 19.9578 14.7115 20.1338 14.8932C20.3097 15.0748 20.4081 15.3178 20.4081 15.5708C20.4081 15.8237 20.3097 16.0667 20.1338 16.2484C19.9578 16.43 19.7181 16.5362 19.4653 16.5443H16.5443V19.4653C16.5362 19.718 16.4301 19.9578 16.2484 20.1337C16.0667 20.3097 15.8237 20.4081 15.5708 20.4081C15.3179 20.4081 15.0749 20.3097 14.8932 20.1337C14.7115 19.9578 14.6054 19.718 14.5973 19.4653V15.5713Z" fill="#5EA9CE"/>
</svg>
