<svg width="22" height="25" viewBox="0 0 22 25" fill="none" xmlns="http://www.w3.org/2000/svg">
<path d="M13.4311 24.2022C14.0774 23.9642 14.6034 23.4803 14.8945 22.8561C15.1856 22.2318 15.2181 21.5179 14.985 20.8697L10.0968 22.6489C10.3349 23.2956 10.8191 23.8218 11.4438 24.1128C12.0684 24.4038 12.7828 24.4359 13.4311 24.2022ZM18.0977 14.1946L15.8729 8.08188C14.5065 4.32781 11.3697 1.9109 7.55726 2.35672L7.25389 1.52321C7.06086 1.05937 6.69643 0.687802 6.2364 0.485835C5.77637 0.283868 5.25619 0.267052 4.78408 0.438886C4.31197 0.61072 3.92429 0.957971 3.70172 1.40838C3.47914 1.8588 3.4388 2.37769 3.58909 2.85709L3.89178 3.68872C0.694793 5.79625 -0.175087 9.65445 1.19676 13.4236L3.42194 19.5372L1.86867 22.8715L2.3133 24.0931L21.8777 16.9723L21.4331 15.7507L18.0977 14.1946ZM16.0991 16.3054L6.31412 19.8669L3.64465 12.5326C2.54096 9.5002 3.48828 6.35768 6.53288 5.24954C9.57749 4.14139 12.3232 5.93977 13.4269 8.97216L16.0991 16.3054Z" fill="#3F9BFF"/>
</svg>
