<svg width="17" height="5" viewBox="0 0 17 5" fill="none" xmlns="http://www.w3.org/2000/svg">
<path d="M2.48075 0.000185153C2.74272 -0.00339759 3.00263 0.0467536 3.24446 0.147542C3.48628 0.248331 3.70488 0.397617 3.88675 0.586186C4.26209 0.967109 4.47249 1.48041 4.47249 2.01519C4.47249 2.54996 4.26209 3.06326 3.88675 3.44419C3.70496 3.63293 3.4864 3.78241 3.24458 3.88337C3.00275 3.98433 2.74279 4.03464 2.48075 4.03119C2.21879 4.03477 1.95887 3.98462 1.71705 3.88383C1.47523 3.78304 1.25663 3.63375 1.07475 3.44518C0.699414 3.06426 0.489014 2.55096 0.489014 2.01619C0.489014 1.48141 0.699414 0.968109 1.07475 0.587185C1.25659 0.398569 1.47518 0.249252 1.71702 0.14846C1.95885 0.0476675 2.21878 -0.00245651 2.48075 0.00118556V0.000185153ZM14.4758 0.000185153C14.7377 -0.00339759 14.9976 0.0467536 15.2395 0.147542C15.4813 0.248331 15.6999 0.397617 15.8818 0.586186C16.2571 0.967109 16.4675 1.48041 16.4675 2.01519C16.4675 2.54996 16.2571 3.06326 15.8818 3.44419C15.6977 3.62983 15.4787 3.77718 15.2373 3.87774C14.996 3.97829 14.7372 4.03007 14.4758 4.03007C14.2143 4.03007 13.9555 3.97829 13.7142 3.87774C13.4728 3.77718 13.2538 3.62983 13.0698 3.44419C12.6944 3.06326 12.484 2.54996 12.484 2.01519C12.484 1.48041 12.6944 0.967109 13.0698 0.586186C13.2516 0.39757 13.4702 0.248251 13.712 0.147459C13.9538 0.0466671 14.2138 -0.00345691 14.4758 0.000185153ZM8.47575 0.000185153C8.73772 -0.00339759 8.99763 0.0467536 9.23946 0.147542C9.48128 0.248331 9.69988 0.397617 9.88175 0.586186C10.2571 0.967109 10.4675 1.48041 10.4675 2.01519C10.4675 2.54996 10.2571 3.06326 9.88175 3.44419C9.69768 3.62983 9.47866 3.77718 9.23735 3.87774C8.99603 3.97829 8.73718 4.03007 8.47575 4.03007C8.21432 4.03007 7.95548 3.97829 7.71416 3.87774C7.47284 3.77718 7.25383 3.62983 7.06975 3.44419C6.69441 3.06326 6.48401 2.54996 6.48401 2.01519C6.48401 1.48041 6.69441 0.967109 7.06975 0.586186C7.25159 0.39757 7.47018 0.248251 7.71202 0.147459C7.95385 0.0466671 8.21378 -0.00345691 8.47575 0.000185153Z" fill="black"/>
</svg>
