<svg width="7" height="12" viewBox="0 0 7 12" fill="none" xmlns="http://www.w3.org/2000/svg">
<path d="M4.72099 5.54202L0.252993 9.73002C0.174903 9.80071 0.112489 9.88697 0.0697746 9.98325C0.02706 10.0795 0.00499153 10.1837 0.00499153 10.289C0.00499153 10.3944 0.02706 10.4985 0.0697746 10.5948C0.112489 10.6911 0.174903 10.7773 0.252993 10.848C0.416761 10.9981 0.630843 11.0814 0.852993 11.0814C1.07514 11.0814 1.28922 10.9981 1.45299 10.848L6.50699 6.10202C6.58229 6.03324 6.64288 5.94992 6.68509 5.85709C6.7273 5.76425 6.75027 5.66382 6.75261 5.56186C6.75495 5.45991 6.7366 5.35853 6.69868 5.26386C6.66077 5.16919 6.60406 5.08318 6.53199 5.01102L1.44799 0.233024C1.28412 0.0831356 1.07008 1.23978e-05 0.847992 1.23978e-05C0.625908 1.23978e-05 0.411866 0.0831356 0.247992 0.233024C0.169902 0.303709 0.10749 0.389971 0.0647755 0.486251C0.0220609 0.582531 -9.53674e-06 0.686693 -9.53674e-06 0.792024C-9.53674e-06 0.897354 0.0220609 1.00151 0.0647755 1.09779C0.10749 1.19407 0.169902 1.28034 0.247992 1.35102L4.72099 5.54202Z" fill="black"/>
</svg>
