<svg width="36" height="36" viewBox="0 0 36 36" fill="none" xmlns="http://www.w3.org/2000/svg">
<path d="M33.604 6.19487H21.466L26.666 0.994873H23.419L18.219 6.19487H18.058L12.858 0.994873H9.62496L14.825 6.19487H2.64896C2.19286 6.19514 1.75553 6.37644 1.43302 6.69894C1.11052 7.02145 0.92922 7.45878 0.928955 7.91487V29.1249C0.92922 29.581 1.11052 30.0183 1.43302 30.3408C1.75553 30.6633 2.19286 30.8446 2.64896 30.8449H10.674V35.3929H26.724V30.8429H33.604C34.06 30.8426 34.4974 30.6613 34.8199 30.3388C35.1424 30.0163 35.3237 29.579 35.324 29.1229V7.91287C35.3237 7.45678 35.1424 7.01945 34.8199 6.69694C34.4974 6.37444 34.06 6.19314 33.604 6.19287V6.19487ZM24.432 33.0999H12.967V30.8429H24.432V33.0999ZM33.032 28.5499H3.22196V8.48687H33.029L33.032 28.5499Z" fill="#4A4A4A"/>
</svg>
