<svg width="37" height="37" viewBox="0 0 37 37" fill="none" xmlns="http://www.w3.org/2000/svg">
<path d="M13.917 24.502L15.817 22.562C15.9912 22.6246 16.1733 22.6626 16.358 22.675C16.808 22.6845 17.2507 22.5598 17.6296 22.3169C18.0086 22.0739 18.3066 21.7236 18.4857 21.3107C18.6649 20.8977 18.717 20.4408 18.6355 19.9981C18.554 19.5554 18.3426 19.147 18.0281 18.8249C17.7137 18.5028 17.3105 18.2816 16.8699 18.1895C16.4292 18.0973 15.9712 18.1385 15.554 18.3077C15.1369 18.4768 14.7796 18.7663 14.5275 19.1393C14.2755 19.5123 14.1403 19.9518 14.139 20.402C14.1512 20.5901 14.1885 20.7758 14.25 20.954L12.35 22.894L4.24998 14.622C4.13306 14.4988 3.98891 14.4047 3.82908 14.3473C3.66924 14.2898 3.49817 14.2706 3.32958 14.2913C3.161 14.3119 2.99959 14.3717 2.85829 14.466C2.717 14.5602 2.59976 14.6862 2.51598 14.834C1.06579 17.5912 0.524354 20.7362 0.969048 23.8196C1.41374 26.903 2.8218 29.7669 4.99198 32.002C7.12932 34.2044 9.93045 35.6446 12.9653 36.1012C16.0002 36.5579 19.1011 36.0059 21.792 34.53C21.939 34.441 22.0639 34.3196 22.1569 34.175C22.2499 34.0305 22.3087 33.8666 22.3287 33.6958C22.3488 33.5251 22.3296 33.3521 22.2726 33.1899C22.2157 33.0277 22.1224 32.8807 22 32.76L13.917 24.502ZM15.318 0.00198193C15.1651 -0.00522509 15.0124 0.0188013 14.8691 0.0725939C14.7259 0.126386 14.5951 0.208816 14.4847 0.31485C14.3744 0.420883 14.2868 0.548294 14.2274 0.689303C14.1679 0.830311 14.1379 0.981958 14.139 1.13498V3.37298C14.134 3.65876 14.2393 3.93548 14.4329 4.14571C14.6266 4.35593 14.8937 4.48352 15.179 4.50198C19.5728 4.81515 23.6992 6.72861 26.7769 9.88002C29.8546 13.0314 31.6699 17.202 31.879 21.602C31.8932 21.8856 32.0148 22.1532 32.219 22.3504C32.4233 22.5477 32.695 22.6598 32.979 22.664H35.205C35.3577 22.6614 35.5083 22.628 35.6477 22.5656C35.7871 22.5032 35.9124 22.4132 36.016 22.3011C36.1197 22.1889 36.1995 22.0569 36.2507 21.913C36.3019 21.7692 36.3235 21.6164 36.314 21.464C36.0739 15.9281 33.7981 10.6758 29.9232 6.71493C26.0483 2.75403 20.8473 0.36349 15.318 0.00198193ZM15.339 6.80198C15.1839 6.7922 15.0285 6.81453 14.8825 6.86757C14.7365 6.9206 14.6029 7.00321 14.4903 7.11022C14.3777 7.21722 14.2883 7.34633 14.2279 7.48945C14.1674 7.63257 14.1372 7.78663 14.139 7.94198V10.215C14.1365 10.4975 14.2408 10.7705 14.4311 10.9793C14.6213 11.1881 14.8835 11.3173 15.165 11.341C17.78 11.6035 20.2195 12.7773 22.0564 14.657C23.8933 16.5367 25.0107 19.0026 25.213 21.623C25.2336 21.9024 25.3578 22.164 25.5613 22.3566C25.7648 22.5491 26.0329 22.6588 26.313 22.664H28.546C28.7012 22.6616 28.8543 22.6274 28.9959 22.5636C29.1374 22.4997 29.2643 22.4076 29.3689 22.2928C29.4735 22.1781 29.5534 22.0431 29.6038 21.8962C29.6542 21.7494 29.674 21.5938 29.662 21.439C29.4071 17.6937 27.8246 14.1621 25.199 11.4792C22.5734 8.79618 19.0769 7.13775 15.338 6.80198H15.339Z" fill="#4A4A4A"/>
</svg>
