<svg width="25" height="37" viewBox="0 0 25 37" fill="none" xmlns="http://www.w3.org/2000/svg">
<path d="M22.2951 0H2.35206C1.75829 0.00843362 1.19197 0.251467 0.776777 0.676028C0.361584 1.10059 0.131246 1.67219 0.13606 2.266V33.988C0.131246 34.5818 0.361584 35.1534 0.776777 35.578C1.19197 36.0025 1.75829 36.2456 2.35206 36.254H22.2951C22.8885 36.245 23.4543 36.0018 23.8691 35.5773C24.2838 35.1528 24.5139 34.5815 24.5091 33.988V2.266C24.5139 1.67253 24.2838 1.10123 23.8691 0.676724C23.4543 0.252219 22.8885 0.00895673 22.2951 0ZM12.3231 34.618C11.9728 34.6258 11.6281 34.529 11.3331 34.34C11.0381 34.151 10.806 33.8783 10.6666 33.5569C10.5272 33.2355 10.4867 32.8798 10.5504 32.5352C10.614 32.1907 10.7789 31.8729 11.0239 31.6225C11.269 31.372 11.5831 31.2003 11.9261 31.1291C12.2692 31.058 12.6257 31.0907 12.9501 31.2231C13.2745 31.3555 13.5521 31.5815 13.7475 31.8723C13.9429 32.1632 14.0472 32.5056 14.0471 32.856C14.0496 33.0849 14.007 33.312 13.9217 33.5245C13.8364 33.7369 13.7101 33.9305 13.55 34.0941C13.3899 34.2577 13.1992 34.3882 12.9886 34.4781C12.7781 34.568 12.552 34.6155 12.3231 34.618ZM22.2951 29.457H2.35206V4.532H22.2951V29.457Z" fill="#4A4A4A"/>
</svg>
