<svg width="18" height="18" viewBox="0 0 18 18" fill="none" xmlns="http://www.w3.org/2000/svg">
<path d="M16.7253 13.8513L13.8023 10.9283L11.5553 9.99528C12.4674 8.69262 12.8577 7.09523 12.6491 5.51873C12.4405 3.94224 11.6481 2.50134 10.4286 1.48075C9.20909 0.460162 7.65111 -0.0658671 6.06252 0.00660494C4.47394 0.079077 2.97032 0.744778 1.84879 1.87217C0.727252 2.99956 0.0693859 4.50662 0.00518324 6.09556C-0.0590194 7.68449 0.475112 9.23972 1.50203 10.4539C2.52896 11.6681 3.97396 12.453 5.55152 12.6534C7.12908 12.8538 8.72442 12.4552 10.0223 11.5363L10.9483 13.7783L13.8713 16.7013C14.0578 16.8932 14.2805 17.0462 14.5266 17.1512C14.7727 17.2563 15.0373 17.3114 15.3048 17.3133C15.5724 17.3153 15.8377 17.264 16.0853 17.1625C16.3329 17.061 16.5578 16.9112 16.7471 16.722C16.9363 16.5328 17.086 16.3079 17.1875 16.0603C17.289 15.8127 17.3403 15.5474 17.3384 15.2798C17.3364 15.0122 17.2813 14.7477 17.1763 14.5016C17.0712 14.2555 16.9182 14.0327 16.7263 13.8463L16.7253 13.8513ZM1.16831 6.36428C1.16831 5.3378 1.4727 4.33436 2.04299 3.48087C2.61327 2.62738 3.42384 1.96217 4.37219 1.56935C5.32054 1.17653 6.36407 1.07375 7.37083 1.27401C8.37759 1.47426 9.30236 1.96856 10.0282 2.6944C10.754 3.42023 11.2483 4.345 11.4486 5.35176C11.6488 6.35853 11.5461 7.40206 11.1532 8.35041C10.7604 9.29876 10.0952 10.1093 9.24172 10.6796C8.38823 11.2499 7.3848 11.5543 6.35831 11.5543C4.98265 11.5516 3.66409 11.004 2.69135 10.0312C1.71861 9.05851 1.17096 7.73994 1.16831 6.36428ZM15.9103 15.8903C15.7479 16.0525 15.5278 16.1436 15.2983 16.1436C15.0688 16.1436 14.8487 16.0525 14.6863 15.8903L11.9263 13.1303L11.0653 11.0453L13.1503 11.9063L15.9103 14.6663C16.0722 14.8286 16.1631 15.0485 16.1631 15.2778C16.1631 15.507 16.0722 15.7269 15.9103 15.8893V15.8903Z" fill="black"/>
</svg>
